<svg width="21" height="19" viewBox="0 0 21 19" fill="none" xmlns="http://www.w3.org/2000/svg">
  <path
    d="M0.0283203 15.9987C1.05303 16.5652 8.47063 20.8411 13.7451 17.5456C19.0196 14.2501 18.7286 8.57238 18.7286 5.97069C19.2064 4.96971 20.2158 4.46082 20.2158 1.75139C19.2243 2.66727 18.2389 2.9789 17.2594 2.68629C16.2998 1.22321 14.9796 0.576092 13.2986 0.744961C10.7773 0.998261 9.8548 3.47195 10.1263 6.67231C6.23858 8.6383 3.19005 5.24712 1.61898 2.68629C1.09405 4.70307 0.587886 7.12435 1.61898 9.80286C2.30637 11.5885 3.95877 13.0981 6.57619 14.3318C3.9236 15.7695 1.74097 16.3251 0.0283203 15.9987Z"
    fill="#51a5fa" fill-opacity="0.9" />
</svg>