<svg width="20" height="20" viewBox="0 0 20 20" fill="none" xmlns="http://www.w3.org/2000/svg">
<path d="M10 20C8.02219 20 6.08879 19.4135 4.4443 18.3147C2.79981 17.2159 1.51809 15.6541 0.761209 13.8268C0.00433289 11.9996 -0.1937 9.98891 0.192152 8.0491C0.578004 6.10929 1.53041 4.32746 2.92894 2.92894C4.32746 1.53041 6.10929 0.578004 8.0491 0.192152C9.98891 -0.1937 11.9996 0.00433289 13.8268 0.761209C15.6541 1.51809 17.2159 2.79981 18.3147 4.4443C19.4135 6.08879 20 8.02219 20 10C19.997 12.6513 18.9425 15.1931 17.0678 17.0678C15.1931 18.9425 12.6513 19.997 10 20Z" fill="#3E73C4"/>
<path d="M14.1118 15.0985C13.9823 14.9671 13.9097 14.79 13.9097 14.6055C13.9097 14.421 13.9823 14.2439 14.1118 14.1125C14.6529 13.5739 15.0819 12.9333 15.3739 12.2279C15.6659 11.5225 15.8152 10.7662 15.8132 10.0027C15.8154 9.23884 15.666 8.48214 15.3738 7.77638C15.0816 7.07062 14.6524 6.42983 14.1109 5.89107C13.9799 5.76031 13.9062 5.58287 13.906 5.39777C13.9058 5.21268 13.9792 5.0351 14.1099 4.90409C14.2407 4.77309 14.4181 4.69939 14.6032 4.69922C14.7883 4.69904 14.9659 4.77241 15.0969 4.90316C15.7683 5.57156 16.3006 6.36635 16.663 7.24164C17.0254 8.11692 17.2109 9.05534 17.2085 10.0027C17.2106 10.9497 17.0251 11.8878 16.6626 12.7628C16.3002 13.6377 15.7681 14.4322 15.0969 15.1004C15.0323 15.1653 14.9554 15.2168 14.8708 15.2519C14.7862 15.2871 14.6955 15.3052 14.6039 15.3052C14.5123 15.3052 14.4216 15.2871 14.337 15.2519C14.2523 15.2168 14.1755 15.1653 14.1109 15.1004L14.1118 15.0985ZM4.9025 15.0985C3.55054 13.7465 2.79102 11.9128 2.79102 10.0008C2.79102 8.08885 3.55054 6.25516 4.9025 4.90316C5.03475 4.77993 5.20968 4.71283 5.39043 4.71602C5.57117 4.71921 5.74362 4.79243 5.87145 4.92026C5.99927 5.04809 6.07249 5.22054 6.07568 5.40128C6.07887 5.58203 6.01178 5.75695 5.88854 5.88921C4.79857 6.97994 4.18629 8.45884 4.18629 10.0008C4.18629 11.5428 4.79857 13.0217 5.88854 14.1125C6.01807 14.2439 6.09068 14.421 6.09068 14.6055C6.09068 14.79 6.01807 14.9671 5.88854 15.0985C5.8239 15.1634 5.74706 15.2149 5.66246 15.2501C5.57785 15.2852 5.48714 15.3033 5.39552 15.3033C5.30391 15.3033 5.21319 15.2852 5.12859 15.2501C5.04398 15.2149 4.96715 15.1634 4.9025 15.0985ZM9.27459 13.7394C8.69658 13.7292 8.14613 13.4905 7.7435 13.0757C7.34087 12.6609 7.11878 12.1035 7.12575 11.5255C7.12697 11.3408 7.20087 11.1641 7.33144 11.0335C7.46202 10.9029 7.63877 10.829 7.82343 10.8278C8.00809 10.829 8.18483 10.9029 8.31541 11.0335C8.44599 11.1641 8.51988 11.3408 8.5211 11.5255C8.51649 11.6288 8.53235 11.732 8.56778 11.8291C8.60321 11.9263 8.6575 12.0155 8.72753 12.0916C8.79756 12.1676 8.88195 12.2291 8.97584 12.2725C9.06973 12.3158 9.17126 12.3401 9.27459 12.3441H10.9118C11.0692 12.3352 11.2167 12.2649 11.3228 12.1484C11.4289 12.0318 11.4851 11.8783 11.4792 11.7208C11.4792 11.2836 11.3769 11.2278 11.0792 11.1255L8.46529 10.2139C8.05645 10.0971 7.7006 9.84244 7.45814 9.49315C7.21567 9.14387 7.10152 8.72145 7.13506 8.29758C7.131 8.03605 7.17859 7.7763 7.2751 7.5332C7.37162 7.2901 7.51516 7.06843 7.69749 6.88091C7.87983 6.69338 8.09739 6.54369 8.33769 6.44039C8.57799 6.3371 8.83631 6.28225 9.09785 6.27898H10.7351C11.3131 6.28926 11.8635 6.52788 12.2661 6.94271C12.6688 7.35755 12.8909 7.91487 12.8839 8.49293C12.8839 8.67796 12.8104 8.85542 12.6795 8.98626C12.5487 9.1171 12.3713 9.1906 12.1862 9.1906C12.0012 9.1906 11.8237 9.1171 11.6929 8.98626C11.562 8.85542 11.4885 8.67796 11.4885 8.49293C11.4932 8.38962 11.4773 8.28643 11.4419 8.18928C11.4064 8.09213 11.3521 8.00294 11.2821 7.92686C11.2121 7.85078 11.1277 7.78929 11.0338 7.74595C10.9399 7.70261 10.8384 7.67827 10.7351 7.67433H9.09785C8.94049 7.68323 8.79291 7.7535 8.68681 7.87004C8.58071 7.98658 8.52455 8.14009 8.5304 8.29758C8.5304 8.73479 8.63273 8.7906 8.9304 8.89293L11.5444 9.80456C11.9532 9.92134 12.309 10.176 12.5515 10.5253C12.794 10.8746 12.9081 11.297 12.8746 11.7208C12.8781 12.2477 12.6742 12.7547 12.307 13.1325C11.9397 13.5102 11.4385 13.7282 10.9118 13.7394H9.27459Z" fill="white"/>
<path d="M9.3025 13.1255V13.9069C9.30371 14.0915 9.37761 14.2683 9.50819 14.3989C9.63876 14.5294 9.81551 14.6033 10.0002 14.6046C10.1848 14.6033 10.3616 14.5294 10.4922 14.3989C10.6227 14.2683 10.6966 14.0915 10.6978 13.9069V13.1255H9.3025Z" fill="white"/>
<path d="M9.3025 7.32084H10.6978V6.09293C10.6966 5.90827 10.6227 5.73153 10.4922 5.60095C10.3616 5.47037 10.1848 5.39648 10.0002 5.39526C9.81551 5.39648 9.63876 5.47037 9.50819 5.60095C9.37761 5.73153 9.30371 5.90827 9.3025 6.09293V7.32084Z" fill="white"/>
</svg>
